<mxfile host="app.diagrams.net" modified="2020-12-17T15:15:52.301Z" agent="5.0 (Windows NT 10.0; Win64; x64) AppleWebKit/537.36 (KHTML, like Gecko) Chrome/87.0.4280.88 Safari/537.36" etag="8vtCXYfVxnmmFQK9lOyT" version="14.0.4" type="github">
  <diagram id="42G1fzwLpRl1x5V8tJLi" name="Page-1">
    <mxGraphModel dx="2490" dy="781" grid="1" gridSize="10" guides="1" tooltips="1" connect="1" arrows="1" fold="1" page="1" pageScale="1" pageWidth="827" pageHeight="1169" math="0" shadow="0">
      <root>
        <mxCell id="0" />
        <mxCell id="1" parent="0" />
        <mxCell id="bZcUfCGep2pBtiNfy6Qd-31" value="&lt;font style=&quot;font-size: 14px&quot;&gt;&lt;b&gt;1000&lt;/b&gt;&lt;/font&gt;" style="shape=cube;whiteSpace=wrap;html=1;boundedLbl=1;backgroundOutline=1;darkOpacity=0.05;darkOpacity2=0.1;" parent="1" vertex="1">
          <mxGeometry x="-710" y="90" width="110" height="50" as="geometry" />
        </mxCell>
        <mxCell id="bZcUfCGep2pBtiNfy6Qd-34" value="&lt;font style=&quot;font-size: 14px&quot;&gt;lowerRight&lt;br&gt;&lt;b&gt;3000&lt;/b&gt;&lt;/font&gt;" style="shape=cube;whiteSpace=wrap;html=1;boundedLbl=1;backgroundOutline=1;darkOpacity=0.05;darkOpacity2=0.1;" parent="1" vertex="1">
          <mxGeometry x="-560" y="110" width="110" height="50" as="geometry" />
        </mxCell>
        <mxCell id="bZcUfCGep2pBtiNfy6Qd-37" value="&lt;span&gt;&lt;font style=&quot;font-size: 14px&quot;&gt;Rectangle org&lt;/font&gt;&lt;/span&gt;" style="text;html=1;align=center;verticalAlign=middle;resizable=0;points=[];autosize=1;" parent="1" vertex="1">
          <mxGeometry x="-705" y="90" width="100" height="20" as="geometry" />
        </mxCell>
        <mxCell id="bZcUfCGep2pBtiNfy6Qd-39" value="&lt;font style=&quot;font-size: 14px&quot;&gt;upperLeft&lt;br&gt;&lt;b&gt;2000&lt;/b&gt;&lt;/font&gt;" style="shape=cube;whiteSpace=wrap;html=1;boundedLbl=1;backgroundOutline=1;darkOpacity=0.05;darkOpacity2=0.1;" parent="1" vertex="1">
          <mxGeometry x="-560" y="80" width="110" height="50" as="geometry" />
        </mxCell>
        <mxCell id="bZcUfCGep2pBtiNfy6Qd-40" value="&lt;span style=&quot;color: rgba(0 , 0 , 0 , 0) ; font-family: monospace ; font-size: 0px&quot;&gt;%3CmxGraphModel%3E%3Croot%3E%3CmxCell%20id%3D%220%22%2F%3E%3CmxCell%20id%3D%221%22%20parent%3D%220%22%2F%3E%3CmxCell%20id%3D%222%22%20value%3D%221000%22%20style%3D%22shape%3Dcube%3BwhiteSpace%3Dwrap%3Bhtml%3D1%3BboundedLbl%3D1%3BbackgroundOutline%3D1%3BdarkOpacity%3D0.05%3BdarkOpacity2%3D0.1%3B%22%20vertex%3D%221%22%20parent%3D%221%22%3E%3CmxGeometry%20x%3D%22160%22%20y%3D%22385%22%20width%3D%22110%22%20height%3D%2250%22%20as%3D%22geometry%22%2F%3E%3C%2FmxCell%3E%3C%2Froot%3E%3C%2FmxGraphModel%3E&lt;/span&gt;" style="text;html=1;align=center;verticalAlign=middle;resizable=0;points=[];autosize=1;" parent="1" vertex="1">
          <mxGeometry x="180" y="300" width="20" height="20" as="geometry" />
        </mxCell>
        <mxCell id="bZcUfCGep2pBtiNfy6Qd-38" value="&lt;span&gt;&lt;font style=&quot;font-size: 14px&quot;&gt;new Rectangle&lt;/font&gt;&lt;/span&gt;" style="text;html=1;align=center;verticalAlign=middle;resizable=0;points=[];autosize=1;" parent="1" vertex="1">
          <mxGeometry x="-560" y="80" width="110" height="20" as="geometry" />
        </mxCell>
        <mxCell id="bZcUfCGep2pBtiNfy6Qd-42" value="&lt;font style=&quot;font-size: 14px&quot;&gt;y1&lt;/font&gt;" style="shape=cube;whiteSpace=wrap;html=1;boundedLbl=1;backgroundOutline=1;darkOpacity=0.05;darkOpacity2=0.1;" parent="1" vertex="1">
          <mxGeometry x="-410" y="80" width="110" height="40" as="geometry" />
        </mxCell>
        <mxCell id="bZcUfCGep2pBtiNfy6Qd-43" value="&lt;font style=&quot;font-size: 14px&quot;&gt;x1&lt;/font&gt;" style="shape=cube;whiteSpace=wrap;html=1;boundedLbl=1;backgroundOutline=1;darkOpacity=0.05;darkOpacity2=0.1;" parent="1" vertex="1">
          <mxGeometry x="-410" y="60" width="110" height="40" as="geometry" />
        </mxCell>
        <mxCell id="bZcUfCGep2pBtiNfy6Qd-44" value="&lt;font style=&quot;font-size: 14px&quot;&gt;y2&lt;/font&gt;" style="shape=cube;whiteSpace=wrap;html=1;boundedLbl=1;backgroundOutline=1;darkOpacity=0.05;darkOpacity2=0.1;" parent="1" vertex="1">
          <mxGeometry x="-409" y="150" width="110" height="40" as="geometry" />
        </mxCell>
        <mxCell id="bZcUfCGep2pBtiNfy6Qd-45" value="&lt;font style=&quot;font-size: 14px&quot;&gt;x2&lt;/font&gt;" style="shape=cube;whiteSpace=wrap;html=1;boundedLbl=1;backgroundOutline=1;darkOpacity=0.05;darkOpacity2=0.1;" parent="1" vertex="1">
          <mxGeometry x="-409" y="130" width="110" height="40" as="geometry" />
        </mxCell>
        <mxCell id="bZcUfCGep2pBtiNfy6Qd-46" style="edgeStyle=orthogonalEdgeStyle;rounded=0;orthogonalLoop=1;jettySize=auto;html=1;exitX=0;exitY=0;exitDx=110;exitDy=35;exitPerimeter=0;entryX=0;entryY=0;entryDx=10;entryDy=30;entryPerimeter=0;" parent="1" source="bZcUfCGep2pBtiNfy6Qd-39" target="bZcUfCGep2pBtiNfy6Qd-43" edge="1">
          <mxGeometry relative="1" as="geometry" />
        </mxCell>
        <mxCell id="bZcUfCGep2pBtiNfy6Qd-47" style="edgeStyle=orthogonalEdgeStyle;rounded=0;orthogonalLoop=1;jettySize=auto;html=1;exitX=0;exitY=0;exitDx=110;exitDy=35;exitPerimeter=0;entryX=0;entryY=0;entryDx=10;entryDy=30;entryPerimeter=0;" parent="1" source="bZcUfCGep2pBtiNfy6Qd-34" target="bZcUfCGep2pBtiNfy6Qd-45" edge="1">
          <mxGeometry relative="1" as="geometry">
            <Array as="points">
              <mxPoint x="-430" y="145" />
              <mxPoint x="-430" y="160" />
            </Array>
          </mxGeometry>
        </mxCell>
        <mxCell id="bZcUfCGep2pBtiNfy6Qd-41" style="edgeStyle=orthogonalEdgeStyle;rounded=0;orthogonalLoop=1;jettySize=auto;html=1;" parent="1" source="bZcUfCGep2pBtiNfy6Qd-31" edge="1">
          <mxGeometry relative="1" as="geometry">
            <mxPoint x="-550" y="102" as="targetPoint" />
            <Array as="points">
              <mxPoint x="-580" y="120" />
              <mxPoint x="-580" y="102" />
            </Array>
          </mxGeometry>
        </mxCell>
        <mxCell id="bZcUfCGep2pBtiNfy6Qd-35" value="" style="edgeStyle=orthogonalEdgeStyle;rounded=0;orthogonalLoop=1;jettySize=auto;html=1;" parent="1" source="bZcUfCGep2pBtiNfy6Qd-31" edge="1">
          <mxGeometry relative="1" as="geometry">
            <mxPoint x="-550" y="135" as="targetPoint" />
            <Array as="points">
              <mxPoint x="-580" y="120" />
              <mxPoint x="-580" y="135" />
            </Array>
          </mxGeometry>
        </mxCell>
        <mxCell id="bZcUfCGep2pBtiNfy6Qd-48" value="&lt;font style=&quot;font-size: 14px&quot;&gt;Point&amp;nbsp; &lt;b&gt;100&lt;/b&gt;&lt;/font&gt;" style="text;html=1;align=center;verticalAlign=middle;resizable=0;points=[];autosize=1;" parent="1" vertex="1">
          <mxGeometry x="-396" y="60" width="80" height="20" as="geometry" />
        </mxCell>
        <mxCell id="bZcUfCGep2pBtiNfy6Qd-49" value="&lt;font style=&quot;font-size: 14px&quot;&gt;Point&amp;nbsp; &amp;nbsp;&lt;b&gt;200&lt;/b&gt;&lt;/font&gt;" style="text;html=1;align=center;verticalAlign=middle;resizable=0;points=[];autosize=1;" parent="1" vertex="1">
          <mxGeometry x="-395" y="130" width="80" height="20" as="geometry" />
        </mxCell>
        <mxCell id="bZcUfCGep2pBtiNfy6Qd-50" value="&lt;font style=&quot;font-size: 14px&quot;&gt;&lt;b&gt;1000&lt;/b&gt;&lt;/font&gt;" style="shape=cube;whiteSpace=wrap;html=1;boundedLbl=1;backgroundOutline=1;darkOpacity=0.05;darkOpacity2=0.1;" parent="1" vertex="1">
          <mxGeometry x="-700" y="250" width="110" height="50" as="geometry" />
        </mxCell>
        <mxCell id="bZcUfCGep2pBtiNfy6Qd-52" value="&lt;font style=&quot;font-size: 14px&quot;&gt;&lt;b&gt;5000&lt;/b&gt;&lt;/font&gt;" style="shape=cube;whiteSpace=wrap;html=1;boundedLbl=1;backgroundOutline=1;darkOpacity=0.05;darkOpacity2=0.1;" parent="1" vertex="1">
          <mxGeometry x="-695" y="625" width="110" height="50" as="geometry" />
        </mxCell>
        <mxCell id="bZcUfCGep2pBtiNfy6Qd-65" style="edgeStyle=orthogonalEdgeStyle;rounded=0;orthogonalLoop=1;jettySize=auto;html=1;entryX=0;entryY=0.5;entryDx=0;entryDy=0;exitX=0;exitY=0;exitDx=110;exitDy=30;exitPerimeter=0;" parent="1" source="bZcUfCGep2pBtiNfy6Qd-42" target="bZcUfCGep2pBtiNfy6Qd-89" edge="1">
          <mxGeometry relative="1" as="geometry">
            <mxPoint x="-280" y="110" as="targetPoint" />
            <mxPoint x="-310" y="110" as="sourcePoint" />
            <Array as="points" />
          </mxGeometry>
        </mxCell>
        <mxCell id="bZcUfCGep2pBtiNfy6Qd-70" value="ê°’" style="text;html=1;align=center;verticalAlign=middle;resizable=0;points=[];autosize=1;" parent="1" vertex="1">
          <mxGeometry x="-244" y="60" width="30" height="20" as="geometry" />
        </mxCell>
        <mxCell id="bZcUfCGep2pBtiNfy6Qd-71" value="&lt;font style=&quot;font-size: 14px&quot;&gt;Rectangle cpy&lt;/font&gt;" style="text;html=1;align=center;verticalAlign=middle;resizable=0;points=[];autosize=1;" parent="1" vertex="1">
          <mxGeometry x="-695" y="250" width="100" height="20" as="geometry" />
        </mxCell>
        <mxCell id="bZcUfCGep2pBtiNfy6Qd-72" value="&lt;font style=&quot;font-size: 14px&quot;&gt;lowerRight&lt;br&gt;&lt;b&gt;3000&lt;/b&gt;&lt;/font&gt;" style="shape=cube;whiteSpace=wrap;html=1;boundedLbl=1;backgroundOutline=1;darkOpacity=0.05;darkOpacity2=0.1;" parent="1" vertex="1">
          <mxGeometry x="-560" y="270" width="110" height="50" as="geometry" />
        </mxCell>
        <mxCell id="bZcUfCGep2pBtiNfy6Qd-73" value="&lt;font style=&quot;font-size: 14px&quot;&gt;upperLeft&lt;br&gt;&lt;b&gt;2000&lt;/b&gt;&lt;/font&gt;" style="shape=cube;whiteSpace=wrap;html=1;boundedLbl=1;backgroundOutline=1;darkOpacity=0.05;darkOpacity2=0.1;" parent="1" vertex="1">
          <mxGeometry x="-560" y="240" width="110" height="50" as="geometry" />
        </mxCell>
        <mxCell id="bZcUfCGep2pBtiNfy6Qd-77" style="edgeStyle=orthogonalEdgeStyle;rounded=0;orthogonalLoop=1;jettySize=auto;html=1;" parent="1" edge="1">
          <mxGeometry relative="1" as="geometry">
            <mxPoint x="-600" y="285" as="sourcePoint" />
            <mxPoint x="-550" y="267" as="targetPoint" />
            <Array as="points">
              <mxPoint x="-580" y="285" />
              <mxPoint x="-580" y="267" />
            </Array>
          </mxGeometry>
        </mxCell>
        <mxCell id="bZcUfCGep2pBtiNfy6Qd-78" value="" style="edgeStyle=orthogonalEdgeStyle;rounded=0;orthogonalLoop=1;jettySize=auto;html=1;" parent="1" edge="1">
          <mxGeometry x="0.0769" relative="1" as="geometry">
            <mxPoint x="-600" y="285" as="sourcePoint" />
            <mxPoint x="-550" y="300" as="targetPoint" />
            <Array as="points">
              <mxPoint x="-580" y="285" />
              <mxPoint x="-580" y="300" />
            </Array>
            <mxPoint as="offset" />
          </mxGeometry>
        </mxCell>
        <mxCell id="bZcUfCGep2pBtiNfy6Qd-84" style="edgeStyle=orthogonalEdgeStyle;rounded=0;orthogonalLoop=1;jettySize=auto;html=1;entryX=0;entryY=0.5;entryDx=0;entryDy=0;exitX=0;exitY=0;exitDx=110;exitDy=30;exitPerimeter=0;" parent="1" target="bZcUfCGep2pBtiNfy6Qd-88" edge="1">
          <mxGeometry relative="1" as="geometry">
            <mxPoint x="-244" y="90" as="targetPoint" />
            <mxPoint x="-300" y="90" as="sourcePoint" />
            <Array as="points" />
          </mxGeometry>
        </mxCell>
        <mxCell id="bZcUfCGep2pBtiNfy6Qd-86" style="edgeStyle=orthogonalEdgeStyle;rounded=0;orthogonalLoop=1;jettySize=auto;html=1;entryX=0;entryY=0.5;entryDx=0;entryDy=0;" parent="1" target="bZcUfCGep2pBtiNfy6Qd-90" edge="1">
          <mxGeometry relative="1" as="geometry">
            <mxPoint x="-244" y="160" as="targetPoint" />
            <mxPoint x="-300" y="160" as="sourcePoint" />
            <Array as="points" />
          </mxGeometry>
        </mxCell>
        <mxCell id="bZcUfCGep2pBtiNfy6Qd-87" style="edgeStyle=orthogonalEdgeStyle;rounded=0;orthogonalLoop=1;jettySize=auto;html=1;entryX=0;entryY=0.5;entryDx=0;entryDy=0;exitX=0;exitY=0;exitDx=110;exitDy=30;exitPerimeter=0;" parent="1" target="bZcUfCGep2pBtiNfy6Qd-91" edge="1">
          <mxGeometry relative="1" as="geometry">
            <mxPoint x="-254" y="170" as="targetPoint" />
            <mxPoint x="-299.9999999999999" y="180" as="sourcePoint" />
            <Array as="points" />
          </mxGeometry>
        </mxCell>
        <mxCell id="bZcUfCGep2pBtiNfy6Qd-88" value="&lt;span style=&quot;font-size: 14px&quot;&gt;1â†’2&lt;/span&gt;" style="rounded=0;whiteSpace=wrap;html=1;" parent="1" vertex="1">
          <mxGeometry x="-264" y="80" width="70" height="20" as="geometry" />
        </mxCell>
        <mxCell id="bZcUfCGep2pBtiNfy6Qd-89" value="&lt;span style=&quot;font-size: 14px&quot;&gt;1â†’2&lt;/span&gt;" style="rounded=0;whiteSpace=wrap;html=1;" parent="1" vertex="1">
          <mxGeometry x="-264" y="100" width="70" height="20" as="geometry" />
        </mxCell>
        <mxCell id="bZcUfCGep2pBtiNfy6Qd-90" value="&lt;font style=&quot;font-size: 14px&quot;&gt;9â†’7&lt;/font&gt;" style="rounded=0;whiteSpace=wrap;html=1;" parent="1" vertex="1">
          <mxGeometry x="-264" y="150" width="70" height="20" as="geometry" />
        </mxCell>
        <mxCell id="bZcUfCGep2pBtiNfy6Qd-91" value="&lt;span style=&quot;font-size: 14px&quot;&gt;9â†’7&lt;/span&gt;" style="rounded=0;whiteSpace=wrap;html=1;" parent="1" vertex="1">
          <mxGeometry x="-264" y="170" width="70" height="20" as="geometry" />
        </mxCell>
        <mxCell id="bZcUfCGep2pBtiNfy6Qd-92" value="" style="curved=1;endArrow=classic;html=1;fillColor=#99FFFF;" parent="1" edge="1">
          <mxGeometry width="50" height="50" relative="1" as="geometry">
            <mxPoint x="-450" y="310" as="sourcePoint" />
            <mxPoint x="-400" y="160" as="targetPoint" />
            <Array as="points">
              <mxPoint x="-410" y="270" />
              <mxPoint x="-450" y="260" />
            </Array>
          </mxGeometry>
        </mxCell>
        <mxCell id="bZcUfCGep2pBtiNfy6Qd-93" value="" style="curved=1;endArrow=classic;html=1;fillColor=#99FFFF;" parent="1" edge="1">
          <mxGeometry width="50" height="50" relative="1" as="geometry">
            <mxPoint x="-450" y="270" as="sourcePoint" />
            <mxPoint x="-410" y="90" as="targetPoint" />
            <Array as="points">
              <mxPoint x="-440" y="250" />
              <mxPoint x="-450" y="160" />
            </Array>
          </mxGeometry>
        </mxCell>
        <mxCell id="bZcUfCGep2pBtiNfy6Qd-100" value="&lt;font style=&quot;font-size: 14px&quot;&gt;&lt;b&gt;1000&lt;/b&gt;&lt;/font&gt;" style="shape=cube;whiteSpace=wrap;html=1;boundedLbl=1;backgroundOutline=1;darkOpacity=0.05;darkOpacity2=0.1;" parent="1" vertex="1">
          <mxGeometry x="-695" y="465" width="110" height="50" as="geometry" />
        </mxCell>
        <mxCell id="bZcUfCGep2pBtiNfy6Qd-101" value="&lt;font style=&quot;font-size: 14px&quot;&gt;lowerRight&lt;br&gt;&lt;b&gt;3000&lt;/b&gt;&lt;/font&gt;" style="shape=cube;whiteSpace=wrap;html=1;boundedLbl=1;backgroundOutline=1;darkOpacity=0.05;darkOpacity2=0.1;" parent="1" vertex="1">
          <mxGeometry x="-555" y="485" width="110" height="50" as="geometry" />
        </mxCell>
        <mxCell id="bZcUfCGep2pBtiNfy6Qd-102" value="&lt;font style=&quot;font-size: 14px&quot;&gt;upperLeft&lt;br&gt;&lt;b&gt;2000&lt;/b&gt;&lt;/font&gt;" style="shape=cube;whiteSpace=wrap;html=1;boundedLbl=1;backgroundOutline=1;darkOpacity=0.05;darkOpacity2=0.1;" parent="1" vertex="1">
          <mxGeometry x="-555" y="455" width="110" height="50" as="geometry" />
        </mxCell>
        <mxCell id="bZcUfCGep2pBtiNfy6Qd-103" style="edgeStyle=orthogonalEdgeStyle;rounded=0;orthogonalLoop=1;jettySize=auto;html=1;" parent="1" edge="1">
          <mxGeometry relative="1" as="geometry">
            <mxPoint x="-595.0000000000001" y="500" as="sourcePoint" />
            <mxPoint x="-545" y="482" as="targetPoint" />
            <Array as="points">
              <mxPoint x="-575" y="500" />
              <mxPoint x="-575" y="482" />
            </Array>
          </mxGeometry>
        </mxCell>
        <mxCell id="bZcUfCGep2pBtiNfy6Qd-104" value="" style="edgeStyle=orthogonalEdgeStyle;rounded=0;orthogonalLoop=1;jettySize=auto;html=1;" parent="1" edge="1">
          <mxGeometry x="0.0769" relative="1" as="geometry">
            <mxPoint x="-595.0000000000001" y="500" as="sourcePoint" />
            <mxPoint x="-545" y="515" as="targetPoint" />
            <Array as="points">
              <mxPoint x="-575" y="500" />
              <mxPoint x="-575" y="515" />
            </Array>
            <mxPoint as="offset" />
          </mxGeometry>
        </mxCell>
        <mxCell id="bZcUfCGep2pBtiNfy6Qd-105" value="&lt;font style=&quot;font-size: 14px&quot;&gt;lowerRight&lt;br&gt;&lt;b&gt;7000&lt;/b&gt;&lt;/font&gt;" style="shape=cube;whiteSpace=wrap;html=1;boundedLbl=1;backgroundOutline=1;darkOpacity=0.05;darkOpacity2=0.1;" parent="1" vertex="1">
          <mxGeometry x="-545" y="640" width="110" height="50" as="geometry" />
        </mxCell>
        <mxCell id="bZcUfCGep2pBtiNfy6Qd-106" value="&lt;font style=&quot;font-size: 14px&quot;&gt;upperLeft&lt;br&gt;&lt;b&gt;6000&lt;/b&gt;&lt;br&gt;&lt;/font&gt;" style="shape=cube;whiteSpace=wrap;html=1;boundedLbl=1;backgroundOutline=1;darkOpacity=0.05;darkOpacity2=0.1;" parent="1" vertex="1">
          <mxGeometry x="-545" y="610" width="110" height="50" as="geometry" />
        </mxCell>
        <mxCell id="bZcUfCGep2pBtiNfy6Qd-107" style="edgeStyle=orthogonalEdgeStyle;rounded=0;orthogonalLoop=1;jettySize=auto;html=1;" parent="1" edge="1">
          <mxGeometry relative="1" as="geometry">
            <mxPoint x="-585.0000000000001" y="655" as="sourcePoint" />
            <mxPoint x="-535" y="637" as="targetPoint" />
            <Array as="points">
              <mxPoint x="-565" y="655" />
              <mxPoint x="-565" y="637" />
            </Array>
          </mxGeometry>
        </mxCell>
        <mxCell id="bZcUfCGep2pBtiNfy6Qd-108" value="" style="edgeStyle=orthogonalEdgeStyle;rounded=0;orthogonalLoop=1;jettySize=auto;html=1;" parent="1" edge="1">
          <mxGeometry x="0.0769" relative="1" as="geometry">
            <mxPoint x="-585.0000000000001" y="655" as="sourcePoint" />
            <mxPoint x="-535" y="670" as="targetPoint" />
            <Array as="points">
              <mxPoint x="-565" y="655" />
              <mxPoint x="-565" y="670" />
            </Array>
            <mxPoint as="offset" />
          </mxGeometry>
        </mxCell>
        <mxCell id="bZcUfCGep2pBtiNfy6Qd-116" value="&lt;font style=&quot;font-size: 14px&quot;&gt;x2&lt;/font&gt;" style="shape=cube;whiteSpace=wrap;html=1;boundedLbl=1;backgroundOutline=1;darkOpacity=0.05;darkOpacity2=0.1;" parent="1" vertex="1">
          <mxGeometry x="-398" y="515" width="110" height="40" as="geometry" />
        </mxCell>
        <mxCell id="bZcUfCGep2pBtiNfy6Qd-119" value="&lt;font style=&quot;font-size: 14px&quot;&gt;x1&lt;/font&gt;" style="shape=cube;whiteSpace=wrap;html=1;boundedLbl=1;backgroundOutline=1;darkOpacity=0.05;darkOpacity2=0.1;" parent="1" vertex="1">
          <mxGeometry x="-398" y="445" width="110" height="40" as="geometry" />
        </mxCell>
        <mxCell id="bZcUfCGep2pBtiNfy6Qd-120" value="&lt;font style=&quot;font-size: 14px&quot;&gt;y1&lt;/font&gt;" style="shape=cube;whiteSpace=wrap;html=1;boundedLbl=1;backgroundOutline=1;darkOpacity=0.05;darkOpacity2=0.1;" parent="1" vertex="1">
          <mxGeometry x="-398" y="425" width="110" height="40" as="geometry" />
        </mxCell>
        <mxCell id="bZcUfCGep2pBtiNfy6Qd-121" value="&lt;font style=&quot;font-size: 14px&quot;&gt;x2&lt;/font&gt;" style="shape=cube;whiteSpace=wrap;html=1;boundedLbl=1;backgroundOutline=1;darkOpacity=0.05;darkOpacity2=0.1;" parent="1" vertex="1">
          <mxGeometry x="-398" y="495" width="110" height="40" as="geometry" />
        </mxCell>
        <mxCell id="bZcUfCGep2pBtiNfy6Qd-124" value="&lt;font style=&quot;font-size: 14px&quot;&gt;x2&lt;/font&gt;" style="shape=cube;whiteSpace=wrap;html=1;boundedLbl=1;backgroundOutline=1;darkOpacity=0.05;darkOpacity2=0.1;" parent="1" vertex="1">
          <mxGeometry x="-398" y="690" width="110" height="40" as="geometry" />
        </mxCell>
        <mxCell id="bZcUfCGep2pBtiNfy6Qd-125" value="&lt;font style=&quot;font-size: 14px&quot;&gt;x1&lt;/font&gt;" style="shape=cube;whiteSpace=wrap;html=1;boundedLbl=1;backgroundOutline=1;darkOpacity=0.05;darkOpacity2=0.1;" parent="1" vertex="1">
          <mxGeometry x="-398" y="620" width="110" height="40" as="geometry" />
        </mxCell>
        <mxCell id="bZcUfCGep2pBtiNfy6Qd-126" value="&lt;font style=&quot;font-size: 14px&quot;&gt;y1&lt;/font&gt;" style="shape=cube;whiteSpace=wrap;html=1;boundedLbl=1;backgroundOutline=1;darkOpacity=0.05;darkOpacity2=0.1;" parent="1" vertex="1">
          <mxGeometry x="-398" y="600" width="110" height="40" as="geometry" />
        </mxCell>
        <mxCell id="bZcUfCGep2pBtiNfy6Qd-127" value="&lt;font style=&quot;font-size: 14px&quot;&gt;x2&lt;/font&gt;" style="shape=cube;whiteSpace=wrap;html=1;boundedLbl=1;backgroundOutline=1;darkOpacity=0.05;darkOpacity2=0.1;" parent="1" vertex="1">
          <mxGeometry x="-398" y="670" width="110" height="40" as="geometry" />
        </mxCell>
        <mxCell id="bZcUfCGep2pBtiNfy6Qd-130" style="edgeStyle=orthogonalEdgeStyle;rounded=0;orthogonalLoop=1;jettySize=auto;html=1;exitX=0;exitY=0;exitDx=110;exitDy=35;exitPerimeter=0;entryX=0;entryY=0;entryDx=10;entryDy=30;entryPerimeter=0;" parent="1" target="bZcUfCGep2pBtiNfy6Qd-120" edge="1">
          <mxGeometry relative="1" as="geometry">
            <mxPoint x="-445" y="489.94000000000005" as="sourcePoint" />
            <mxPoint x="-395" y="464.94000000000005" as="targetPoint" />
            <Array as="points">
              <mxPoint x="-410" y="490" />
              <mxPoint x="-410" y="455" />
            </Array>
          </mxGeometry>
        </mxCell>
        <mxCell id="bZcUfCGep2pBtiNfy6Qd-131" style="edgeStyle=orthogonalEdgeStyle;rounded=0;orthogonalLoop=1;jettySize=auto;html=1;exitX=0;exitY=0;exitDx=110;exitDy=35;exitPerimeter=0;entryX=0;entryY=0;entryDx=10;entryDy=30;entryPerimeter=0;" parent="1" edge="1">
          <mxGeometry relative="1" as="geometry">
            <mxPoint x="-445" y="505.0300000000001" as="sourcePoint" />
            <mxPoint x="-394" y="520.0300000000001" as="targetPoint" />
            <Array as="points">
              <mxPoint x="-445" y="520" />
            </Array>
          </mxGeometry>
        </mxCell>
        <mxCell id="bZcUfCGep2pBtiNfy6Qd-133" value="&lt;font style=&quot;font-size: 14px&quot;&gt;Point&amp;nbsp; &lt;b&gt;100&lt;/b&gt;&lt;/font&gt;" style="text;html=1;align=center;verticalAlign=middle;resizable=0;points=[];autosize=1;" parent="1" vertex="1">
          <mxGeometry x="-379" y="425" width="80" height="20" as="geometry" />
        </mxCell>
        <mxCell id="bZcUfCGep2pBtiNfy6Qd-134" value="&lt;font style=&quot;font-size: 14px&quot;&gt;Point&amp;nbsp; &amp;nbsp;&lt;b&gt;200&lt;/b&gt;&lt;/font&gt;" style="text;html=1;align=center;verticalAlign=middle;resizable=0;points=[];autosize=1;" parent="1" vertex="1">
          <mxGeometry x="-379" y="495" width="80" height="20" as="geometry" />
        </mxCell>
        <mxCell id="bZcUfCGep2pBtiNfy6Qd-135" value="&lt;font style=&quot;font-size: 14px&quot;&gt;Point&amp;nbsp; &amp;nbsp;&lt;b&gt;300&lt;/b&gt;&lt;/font&gt;" style="text;html=1;align=center;verticalAlign=middle;resizable=0;points=[];autosize=1;" parent="1" vertex="1">
          <mxGeometry x="-379" y="600" width="80" height="20" as="geometry" />
        </mxCell>
        <mxCell id="bZcUfCGep2pBtiNfy6Qd-136" value="&lt;font style=&quot;font-size: 14px&quot;&gt;Point&amp;nbsp; &amp;nbsp;&lt;b&gt;400&lt;/b&gt;&lt;/font&gt;" style="text;html=1;align=center;verticalAlign=middle;resizable=0;points=[];autosize=1;" parent="1" vertex="1">
          <mxGeometry x="-379" y="670" width="80" height="20" as="geometry" />
        </mxCell>
        <mxCell id="bZcUfCGep2pBtiNfy6Qd-137" style="edgeStyle=orthogonalEdgeStyle;rounded=0;orthogonalLoop=1;jettySize=auto;html=1;entryX=0;entryY=0;entryDx=10;entryDy=30;entryPerimeter=0;fillColor=#99FFFF;" parent="1" source="bZcUfCGep2pBtiNfy6Qd-106" target="bZcUfCGep2pBtiNfy6Qd-126" edge="1">
          <mxGeometry relative="1" as="geometry" />
        </mxCell>
        <mxCell id="bZcUfCGep2pBtiNfy6Qd-138" style="edgeStyle=orthogonalEdgeStyle;rounded=0;orthogonalLoop=1;jettySize=auto;html=1;fillColor=#99FFFF;" parent="1" source="bZcUfCGep2pBtiNfy6Qd-105" edge="1">
          <mxGeometry relative="1" as="geometry">
            <mxPoint x="-393" y="699" as="targetPoint" />
            <Array as="points">
              <mxPoint x="-410" y="680" />
              <mxPoint x="-410" y="699" />
            </Array>
          </mxGeometry>
        </mxCell>
        <mxCell id="bZcUfCGep2pBtiNfy6Qd-141" style="edgeStyle=orthogonalEdgeStyle;rounded=0;orthogonalLoop=1;jettySize=auto;html=1;entryX=0;entryY=0.5;entryDx=0;entryDy=0;exitX=0;exitY=0;exitDx=110;exitDy=30;exitPerimeter=0;" parent="1" edge="1">
          <mxGeometry relative="1" as="geometry">
            <mxPoint x="-252" y="475" as="targetPoint" />
            <mxPoint x="-288" y="475" as="sourcePoint" />
            <Array as="points" />
          </mxGeometry>
        </mxCell>
        <mxCell id="bZcUfCGep2pBtiNfy6Qd-142" value="ê°’" style="text;html=1;align=center;verticalAlign=middle;resizable=0;points=[];autosize=1;" parent="1" vertex="1">
          <mxGeometry x="-232" y="425" width="30" height="20" as="geometry" />
        </mxCell>
        <mxCell id="bZcUfCGep2pBtiNfy6Qd-143" style="edgeStyle=orthogonalEdgeStyle;rounded=0;orthogonalLoop=1;jettySize=auto;html=1;entryX=0;entryY=0.5;entryDx=0;entryDy=0;exitX=0;exitY=0;exitDx=110;exitDy=30;exitPerimeter=0;" parent="1" target="bZcUfCGep2pBtiNfy6Qd-146" edge="1">
          <mxGeometry relative="1" as="geometry">
            <mxPoint x="-232" y="455" as="targetPoint" />
            <mxPoint x="-288" y="455" as="sourcePoint" />
            <Array as="points" />
          </mxGeometry>
        </mxCell>
        <mxCell id="bZcUfCGep2pBtiNfy6Qd-146" value="&lt;font style=&quot;font-size: 14px&quot;&gt;1â†’2&lt;/font&gt;" style="rounded=0;whiteSpace=wrap;html=1;" parent="1" vertex="1">
          <mxGeometry x="-252" y="445" width="70" height="20" as="geometry" />
        </mxCell>
        <mxCell id="bZcUfCGep2pBtiNfy6Qd-149" style="edgeStyle=orthogonalEdgeStyle;rounded=0;orthogonalLoop=1;jettySize=auto;html=1;entryX=0;entryY=0.5;entryDx=0;entryDy=0;exitX=0;exitY=0;exitDx=110;exitDy=30;exitPerimeter=0;" parent="1" edge="1">
          <mxGeometry relative="1" as="geometry">
            <mxPoint x="-252" y="650" as="targetPoint" />
            <mxPoint x="-288" y="650" as="sourcePoint" />
            <Array as="points" />
          </mxGeometry>
        </mxCell>
        <mxCell id="bZcUfCGep2pBtiNfy6Qd-150" value="ê°’" style="text;html=1;align=center;verticalAlign=middle;resizable=0;points=[];autosize=1;" parent="1" vertex="1">
          <mxGeometry x="-232" y="600" width="30" height="20" as="geometry" />
        </mxCell>
        <mxCell id="bZcUfCGep2pBtiNfy6Qd-151" style="edgeStyle=orthogonalEdgeStyle;rounded=0;orthogonalLoop=1;jettySize=auto;html=1;entryX=0;entryY=0.5;entryDx=0;entryDy=0;exitX=0;exitY=0;exitDx=110;exitDy=30;exitPerimeter=0;" parent="1" target="bZcUfCGep2pBtiNfy6Qd-154" edge="1">
          <mxGeometry relative="1" as="geometry">
            <mxPoint x="-232" y="630" as="targetPoint" />
            <mxPoint x="-288" y="630" as="sourcePoint" />
            <Array as="points" />
          </mxGeometry>
        </mxCell>
        <mxCell id="bZcUfCGep2pBtiNfy6Qd-152" style="edgeStyle=orthogonalEdgeStyle;rounded=0;orthogonalLoop=1;jettySize=auto;html=1;entryX=0;entryY=0.5;entryDx=0;entryDy=0;" parent="1" target="bZcUfCGep2pBtiNfy6Qd-155" edge="1">
          <mxGeometry relative="1" as="geometry">
            <mxPoint x="-232" y="700" as="targetPoint" />
            <mxPoint x="-288" y="700" as="sourcePoint" />
            <Array as="points" />
          </mxGeometry>
        </mxCell>
        <mxCell id="bZcUfCGep2pBtiNfy6Qd-153" style="edgeStyle=orthogonalEdgeStyle;rounded=0;orthogonalLoop=1;jettySize=auto;html=1;entryX=0;entryY=0.5;entryDx=0;entryDy=0;exitX=0;exitY=0;exitDx=110;exitDy=30;exitPerimeter=0;" parent="1" target="bZcUfCGep2pBtiNfy6Qd-156" edge="1">
          <mxGeometry relative="1" as="geometry">
            <mxPoint x="-242" y="710" as="targetPoint" />
            <mxPoint x="-288" y="720" as="sourcePoint" />
            <Array as="points" />
          </mxGeometry>
        </mxCell>
        <mxCell id="bZcUfCGep2pBtiNfy6Qd-154" value="&lt;font style=&quot;font-size: 14px&quot;&gt;1&lt;/font&gt;" style="rounded=0;whiteSpace=wrap;html=1;" parent="1" vertex="1">
          <mxGeometry x="-252" y="620" width="70" height="20" as="geometry" />
        </mxCell>
        <mxCell id="bZcUfCGep2pBtiNfy6Qd-155" value="&lt;font style=&quot;font-size: 14px&quot;&gt;9&lt;/font&gt;" style="rounded=0;whiteSpace=wrap;html=1;" parent="1" vertex="1">
          <mxGeometry x="-252" y="690" width="70" height="20" as="geometry" />
        </mxCell>
        <mxCell id="bZcUfCGep2pBtiNfy6Qd-156" value="&lt;font style=&quot;font-size: 14px&quot;&gt;9&lt;/font&gt;" style="rounded=0;whiteSpace=wrap;html=1;" parent="1" vertex="1">
          <mxGeometry x="-252" y="710" width="70" height="20" as="geometry" />
        </mxCell>
        <mxCell id="bZcUfCGep2pBtiNfy6Qd-157" value="&lt;span style=&quot;font-size: 14px&quot;&gt;1â†’2&lt;/span&gt;" style="rounded=0;whiteSpace=wrap;html=1;" parent="1" vertex="1">
          <mxGeometry x="-252" y="465" width="70" height="20" as="geometry" />
        </mxCell>
        <mxCell id="bZcUfCGep2pBtiNfy6Qd-158" value="&lt;font style=&quot;font-size: 14px&quot;&gt;1&lt;/font&gt;" style="rounded=0;whiteSpace=wrap;html=1;" parent="1" vertex="1">
          <mxGeometry x="-252" y="640" width="70" height="20" as="geometry" />
        </mxCell>
        <mxCell id="bZcUfCGep2pBtiNfy6Qd-163" style="edgeStyle=orthogonalEdgeStyle;rounded=0;orthogonalLoop=1;jettySize=auto;html=1;entryX=0;entryY=0.5;entryDx=0;entryDy=0;" parent="1" target="bZcUfCGep2pBtiNfy6Qd-166" edge="1">
          <mxGeometry relative="1" as="geometry">
            <mxPoint x="-232" y="525" as="targetPoint" />
            <mxPoint x="-288.0000000000001" y="525" as="sourcePoint" />
            <Array as="points" />
          </mxGeometry>
        </mxCell>
        <mxCell id="bZcUfCGep2pBtiNfy6Qd-164" style="edgeStyle=orthogonalEdgeStyle;rounded=0;orthogonalLoop=1;jettySize=auto;html=1;entryX=0;entryY=0.5;entryDx=0;entryDy=0;exitX=0;exitY=0;exitDx=110;exitDy=30;exitPerimeter=0;" parent="1" target="bZcUfCGep2pBtiNfy6Qd-165" edge="1">
          <mxGeometry relative="1" as="geometry">
            <mxPoint x="-242" y="535" as="targetPoint" />
            <mxPoint x="-288.0000000000001" y="545" as="sourcePoint" />
            <Array as="points" />
          </mxGeometry>
        </mxCell>
        <mxCell id="bZcUfCGep2pBtiNfy6Qd-165" value="&lt;span style=&quot;font-size: 14px&quot;&gt;9â†’7&lt;/span&gt;" style="rounded=0;whiteSpace=wrap;html=1;" parent="1" vertex="1">
          <mxGeometry x="-252" y="535" width="70" height="20" as="geometry" />
        </mxCell>
        <mxCell id="bZcUfCGep2pBtiNfy6Qd-166" value="&lt;span style=&quot;font-size: 14px&quot;&gt;9â†’7&lt;/span&gt;" style="rounded=0;whiteSpace=wrap;html=1;" parent="1" vertex="1">
          <mxGeometry x="-252" y="515" width="70" height="20" as="geometry" />
        </mxCell>
        <mxCell id="bZcUfCGep2pBtiNfy6Qd-169" value="" style="shape=singleArrow;direction=south;whiteSpace=wrap;html=1;" parent="1" vertex="1">
          <mxGeometry x="-670" y="515" width="60" height="105" as="geometry" />
        </mxCell>
        <mxCell id="bZcUfCGep2pBtiNfy6Qd-171" value="" style="shape=singleArrow;direction=south;whiteSpace=wrap;html=1;" parent="1" vertex="1">
          <mxGeometry x="-685" y="140" width="60" height="110" as="geometry" />
        </mxCell>
        <mxCell id="bZcUfCGep2pBtiNfy6Qd-172" value="&lt;span&gt;&lt;font style=&quot;font-size: 14px&quot;&gt;Rectangle org&lt;/font&gt;&lt;/span&gt;" style="text;html=1;align=center;verticalAlign=middle;resizable=0;points=[];autosize=1;" parent="1" vertex="1">
          <mxGeometry x="-690" y="465" width="100" height="20" as="geometry" />
        </mxCell>
        <mxCell id="bZcUfCGep2pBtiNfy6Qd-173" value="&lt;font style=&quot;font-size: 14px&quot;&gt;Rectangle cpy&lt;/font&gt;" style="text;html=1;align=center;verticalAlign=middle;resizable=0;points=[];autosize=1;" parent="1" vertex="1">
          <mxGeometry x="-690" y="625" width="100" height="20" as="geometry" />
        </mxCell>
        <mxCell id="bZcUfCGep2pBtiNfy6Qd-174" value="&lt;span&gt;&lt;font style=&quot;font-size: 14px&quot;&gt;new Rectangle&lt;/font&gt;&lt;/span&gt;" style="text;html=1;align=center;verticalAlign=middle;resizable=0;points=[];autosize=1;" parent="1" vertex="1">
          <mxGeometry x="-555" y="455" width="110" height="20" as="geometry" />
        </mxCell>
        <mxCell id="bZcUfCGep2pBtiNfy6Qd-175" value="&lt;b&gt;&lt;font style=&quot;font-size: 24px&quot;&gt;deep copy&lt;/font&gt;&lt;/b&gt;" style="text;html=1;align=center;verticalAlign=middle;resizable=0;points=[];autosize=1;" parent="1" vertex="1">
          <mxGeometry x="-710" y="555" width="130" height="20" as="geometry" />
        </mxCell>
        <mxCell id="bZcUfCGep2pBtiNfy6Qd-176" value="&lt;b&gt;&lt;font style=&quot;font-size: 24px&quot;&gt;shallow copy&lt;/font&gt;&lt;/b&gt;" style="text;html=1;align=center;verticalAlign=middle;resizable=0;points=[];autosize=1;" parent="1" vertex="1">
          <mxGeometry x="-740" y="180" width="170" height="20" as="geometry" />
        </mxCell>
      </root>
    </mxGraphModel>
  </diagram>
</mxfile>
